<?xml version="1.0" encoding="UTF-8"?>
<svg width="700pt" height="700pt" version="1.1" viewBox="0 0 700 700" xmlns="http://www.w3.org/2000/svg" xmlns:xlink="http://www.w3.org/1999/xlink">
 <defs>
  <symbol id="u" overflow="visible">
   <path d="m0.75-0.046875c-0.042969 0.023438-0.085938 0.039062-0.125 0.046875-0.042969 0.0078125-0.085938 0.015625-0.125 0.015625-0.13672 0-0.24609-0.035156-0.32812-0.10938-0.074219-0.070312-0.10938-0.17578-0.10938-0.3125 0-0.125 0.035156-0.22266 0.10938-0.29688 0.082031-0.082031 0.19141-0.125 0.32812-0.125 0.039062 0 0.082031 0.007813 0.125 0.015625 0.039062 0.011719 0.082031 0.027344 0.125 0.046875v0.17188c-0.042969-0.03125-0.085938-0.050781-0.125-0.0625-0.03125-0.007812-0.070312-0.015625-0.10938-0.015625-0.074219 0-0.13672 0.027344-0.1875 0.078125-0.042969 0.042969-0.0625 0.10547-0.0625 0.1875 0 0.085938 0.019531 0.15234 0.0625 0.20312 0.050781 0.042969 0.11328 0.0625 0.1875 0.0625 0.039063 0 0.078125-0.003906 0.10938-0.015625 0.039062-0.007812 0.082031-0.03125 0.125-0.0625z"/>
  </symbol>
  <symbol id="f" overflow="visible">
   <path d="m0.54688-0.4375c-0.023437-0.007812-0.042969-0.015625-0.0625-0.015625-0.011719-0.007813-0.027344-0.015625-0.046875-0.015625-0.042969 0-0.078125 0.015625-0.10938 0.046875s-0.046875 0.078125-0.046875 0.14062v0.28125h-0.1875v-0.60938h0.1875v0.10938c0.03125-0.039062 0.0625-0.070312 0.09375-0.09375 0.03125-0.019531 0.066406-0.03125 0.10938-0.03125h0.015625c0.007812 0 0.023438 0.007812 0.046875 0.015625z"/>
  </symbol>
  <symbol id="b" overflow="visible">
   <path d="m0.70312-0.3125v0.0625h-0.45312c0 0.042969 0.015625 0.078125 0.046875 0.10938 0.03125 0.023437 0.066406 0.03125 0.10938 0.03125 0.039062 0 0.082031-0.003906 0.125-0.015625 0.050781-0.019531 0.097656-0.039062 0.14062-0.0625v0.15625c-0.054687 0.011719-0.10156 0.023438-0.14062 0.03125-0.042969 0.0078125-0.089844 0.015625-0.14062 0.015625-0.10547 0-0.1875-0.023438-0.25-0.078125-0.0625-0.0625-0.09375-0.14062-0.09375-0.23438 0-0.10156 0.03125-0.17969 0.09375-0.23438 0.0625-0.0625 0.14453-0.09375 0.25-0.09375 0.09375 0 0.16406 0.03125 0.21875 0.09375 0.0625 0.054688 0.09375 0.125 0.09375 0.21875zm-0.20312-0.0625c0-0.03125-0.011719-0.054688-0.03125-0.078125-0.023438-0.03125-0.046875-0.046875-0.078125-0.046875-0.042969 0-0.078125 0.015625-0.10938 0.046875-0.023438 0.023437-0.03125 0.046875-0.03125 0.078125z"/>
  </symbol>
  <symbol id="a" overflow="visible">
   <path d="m0.35938-0.26562c-0.042969 0-0.074219 0.007813-0.09375 0.015625-0.011719 0.011719-0.015625 0.03125-0.015625 0.0625 0 0.023438 0.003906 0.042969 0.015625 0.0625 0.019531 0.011719 0.046875 0.015625 0.078125 0.015625s0.054688-0.007813 0.078125-0.03125c0.03125-0.03125 0.046875-0.066406 0.046875-0.10938v-0.015625zm0.29688-0.078125v0.34375h-0.1875v-0.09375c-0.03125 0.042969-0.0625 0.074219-0.09375 0.09375-0.03125 0.0078125-0.070312 0.015625-0.10938 0.015625-0.0625 0-0.11719-0.015625-0.15625-0.046875-0.042969-0.039062-0.0625-0.09375-0.0625-0.15625s0.019531-0.10938 0.0625-0.14062c0.050781-0.039063 0.12891-0.0625 0.23438-0.0625h0.125v-0.015625c0-0.03125-0.015625-0.050781-0.046875-0.0625-0.023437-0.019531-0.058594-0.03125-0.10938-0.03125-0.042969 0-0.085938 0.007812-0.125 0.015625-0.03125 0.011719-0.0625 0.027344-0.09375 0.046875v-0.15625c0.039062-0.007812 0.082031-0.015625 0.125-0.015625 0.039062-0.007813 0.082031-0.015625 0.125-0.015625 0.11328 0 0.19141 0.027344 0.23438 0.078125 0.050781 0.042969 0.078125 0.10938 0.078125 0.20312z"/>
  </symbol>
  <symbol id="e" overflow="visible">
   <path d="m0.3125-0.78125v0.17188h0.1875v0.14062h-0.1875v0.26562c0 0.023437 0.003906 0.039063 0.015625 0.046875 0.007813 0.011719 0.03125 0.015625 0.0625 0.015625h0.09375v0.14062h-0.15625c-0.085937 0-0.14062-0.015625-0.17188-0.046875s-0.046875-0.082031-0.046875-0.15625v-0.26562h-0.09375v-0.14062h0.09375v-0.17188z"/>
  </symbol>
  <symbol id="j" overflow="visible">
   <path d="m0.5-0.51562v-0.32812h0.20312v0.84375h-0.20312v-0.09375c-0.023438 0.042969-0.046875 0.074219-0.078125 0.09375-0.03125 0.0078125-0.070313 0.015625-0.10938 0.015625-0.085938 0-0.15234-0.023438-0.20312-0.078125-0.042969-0.0625-0.0625-0.14062-0.0625-0.23438s0.019531-0.17188 0.0625-0.23438c0.050781-0.0625 0.11719-0.09375 0.20312-0.09375 0.039062 0 0.078125 0.011719 0.10938 0.03125 0.03125 0.011719 0.054687 0.039062 0.078125 0.078125zm-0.125 0.39062c0.039062 0 0.070312-0.015625 0.09375-0.046875 0.019531-0.03125 0.03125-0.070313 0.03125-0.125 0-0.0625-0.011719-0.10938-0.03125-0.14062-0.023438-0.03125-0.054688-0.046875-0.09375-0.046875-0.042969 0-0.074219 0.015625-0.09375 0.046875-0.023438 0.03125-0.03125 0.078125-0.03125 0.14062 0 0.054687 0.007812 0.09375 0.03125 0.125 0.019531 0.03125 0.050781 0.046875 0.09375 0.046875z"/>
  </symbol>
  <symbol id="i" overflow="visible">
   <path d="m0.42188-0.125c0.039063 0 0.070313-0.015625 0.09375-0.046875 0.019531-0.03125 0.03125-0.070313 0.03125-0.125 0-0.0625-0.011719-0.10938-0.03125-0.14062-0.023437-0.03125-0.054687-0.046875-0.09375-0.046875-0.042969 0-0.078125 0.015625-0.10938 0.046875-0.023438 0.03125-0.03125 0.078125-0.03125 0.14062 0 0.054687 0.007812 0.09375 0.03125 0.125 0.03125 0.03125 0.066406 0.046875 0.10938 0.046875zm-0.14062-0.39062c0.03125-0.039063 0.0625-0.066406 0.09375-0.078125 0.03125-0.019531 0.066406-0.03125 0.10938-0.03125 0.070313 0 0.13281 0.03125 0.1875 0.09375 0.050781 0.0625 0.078125 0.14062 0.078125 0.23438s-0.027344 0.17188-0.078125 0.23438c-0.054687 0.054688-0.11719 0.078125-0.1875 0.078125-0.042969 0-0.078125-0.0078125-0.10938-0.015625-0.03125-0.019531-0.0625-0.050781-0.09375-0.09375v0.09375h-0.1875v-0.84375h0.1875z"/>
  </symbol>
  <symbol id="d" overflow="visible">
   <path d="m0.015625-0.60938h0.1875l0.17188 0.42188 0.14062-0.42188h0.1875l-0.25 0.67188c-0.03125 0.0625-0.0625 0.10156-0.09375 0.125-0.03125 0.03125-0.078125 0.046875-0.14062 0.046875h-0.10938v-0.125h0.0625c0.03125 0 0.050781-0.007813 0.0625-0.015625 0.019531-0.011719 0.035156-0.027344 0.046875-0.046875v-0.03125z"/>
  </symbol>
  <symbol id="g" overflow="visible">
   <path d="m0.39062-0.45312c0.050781 0 0.082031-0.003906 0.09375-0.015625 0.019531-0.019531 0.03125-0.050781 0.03125-0.09375 0-0.03125-0.011719-0.050781-0.03125-0.0625-0.011719-0.019531-0.042969-0.03125-0.09375-0.03125h-0.078125v0.20312zm-0.078125 0.14062v0.3125h-0.20312v-0.8125h0.3125c0.10156 0 0.17969 0.023438 0.23438 0.0625 0.050781 0.03125 0.078125 0.089844 0.078125 0.17188 0 0.054687-0.015625 0.09375-0.046875 0.125-0.023438 0.03125-0.058594 0.058594-0.10938 0.078125 0.019531 0 0.039063 0.015625 0.0625 0.046875 0.03125 0.023437 0.054687 0.054687 0.078125 0.09375l0.10938 0.23438h-0.21875l-0.09375-0.20312c-0.023437-0.039063-0.042969-0.066406-0.0625-0.078125-0.023437-0.019531-0.046875-0.03125-0.078125-0.03125z"/>
  </symbol>
  <symbol id="c" overflow="visible">
   <path d="m0.375-0.48438c-0.042969 0-0.074219 0.015625-0.09375 0.046875-0.023438 0.03125-0.03125 0.078125-0.03125 0.14062 0 0.054687 0.007812 0.09375 0.03125 0.125 0.019531 0.03125 0.050781 0.046875 0.09375 0.046875 0.039062 0 0.070312-0.015625 0.09375-0.046875 0.03125-0.03125 0.046875-0.070313 0.046875-0.125 0-0.0625-0.015625-0.10938-0.046875-0.14062-0.023438-0.03125-0.054688-0.046875-0.09375-0.046875zm0-0.14062c0.10156 0 0.1875 0.03125 0.25 0.09375 0.0625 0.054688 0.09375 0.13281 0.09375 0.23438 0 0.09375-0.03125 0.17188-0.09375 0.23438-0.0625 0.054688-0.14844 0.078125-0.25 0.078125-0.10547 0-0.1875-0.023438-0.25-0.078125-0.054688-0.0625-0.078125-0.14062-0.078125-0.23438 0-0.10156 0.023438-0.17969 0.078125-0.23438 0.0625-0.0625 0.14453-0.09375 0.25-0.09375z"/>
  </symbol>
  <symbol id="h" overflow="visible">
   <path d="m0.70312-0.375v0.375h-0.1875v-0.28125c0-0.050781-0.007813-0.085938-0.015625-0.10938v-0.046875c-0.011719-0.007812-0.027344-0.015625-0.046875-0.015625-0.011719-0.007813-0.023437-0.015625-0.03125-0.015625-0.042969 0-0.078125 0.015625-0.10938 0.046875-0.023438 0.03125-0.03125 0.074219-0.03125 0.125v0.29688h-0.1875v-0.60938h0.1875v0.09375c0.03125-0.039063 0.0625-0.066406 0.09375-0.078125 0.03125-0.019531 0.066406-0.03125 0.10938-0.03125 0.070313 0 0.125 0.023438 0.15625 0.0625 0.039063 0.042969 0.0625 0.10547 0.0625 0.1875z"/>
  </symbol>
  <symbol id="t" overflow="visible">
   <path d="m0.0625-0.60938h0.53125v0.14062l-0.32812 0.32812h0.32812v0.14062h-0.54688v-0.14062l0.32812-0.32812h-0.3125z"/>
  </symbol>
  <symbol id="s" overflow="visible">
   <path d="m0.09375-0.84375h0.1875v0.45312l0.23438-0.21875h0.21875l-0.29688 0.28125 0.32812 0.32812h-0.23438l-0.25-0.25v0.25h-0.1875z"/>
  </symbol>
  <symbol id="r" overflow="visible">
   <path d="m0.5-0.84375v0.125h-0.10938c-0.03125 0-0.054687 0.007812-0.0625 0.015625-0.011719 0.011719-0.015625 0.027344-0.015625 0.046875v0.046875h0.17188v0.14062h-0.17188v0.46875h-0.1875v-0.46875h-0.10938v-0.14062h0.10938v-0.046875c0-0.0625 0.015625-0.10938 0.046875-0.14062 0.039063-0.03125 0.097656-0.046875 0.17188-0.046875z"/>
  </symbol>
  <symbol id="q" overflow="visible">
   <path d="m0.65625-0.5c0.019531-0.039062 0.046875-0.070312 0.078125-0.09375 0.039063-0.019531 0.082031-0.03125 0.125-0.03125 0.0625 0 0.10938 0.023438 0.14062 0.0625 0.039062 0.042969 0.0625 0.10547 0.0625 0.1875v0.375h-0.1875v-0.3125-0.015625-0.03125c0-0.039063-0.007812-0.066406-0.015625-0.078125-0.011719-0.019531-0.03125-0.03125-0.0625-0.03125-0.042969 0-0.074219 0.015625-0.09375 0.046875-0.023437 0.023437-0.03125 0.0625-0.03125 0.125v0.29688h-0.1875v-0.3125c0-0.070312-0.007813-0.11328-0.015625-0.125-0.011719-0.019531-0.03125-0.03125-0.0625-0.03125-0.042969 0-0.074219 0.015625-0.09375 0.046875-0.023438 0.023437-0.03125 0.0625-0.03125 0.125v0.29688h-0.1875v-0.60938h0.1875v0.09375c0.03125-0.03125 0.0625-0.054687 0.09375-0.078125 0.03125-0.019531 0.0625-0.03125 0.09375-0.03125 0.039062 0 0.078125 0.011719 0.10938 0.03125 0.03125 0.023438 0.054687 0.054688 0.078125 0.09375z"/>
  </symbol>
  <symbol id="p" overflow="visible">
   <path d="m0.70312-0.375v0.375h-0.1875v-0.28125c0-0.050781-0.007813-0.085938-0.015625-0.10938v-0.046875c-0.011719-0.007812-0.027344-0.015625-0.046875-0.015625-0.011719-0.007813-0.023437-0.015625-0.03125-0.015625-0.042969 0-0.078125 0.015625-0.10938 0.046875-0.023438 0.03125-0.03125 0.074219-0.03125 0.125v0.29688h-0.1875v-0.84375h0.1875v0.32812c0.03125-0.039063 0.0625-0.066406 0.09375-0.078125 0.03125-0.019531 0.066406-0.03125 0.10938-0.03125 0.070313 0 0.125 0.023438 0.15625 0.0625 0.039063 0.042969 0.0625 0.10547 0.0625 0.1875z"/>
  </symbol>
  <symbol id="o" overflow="visible">
   <path d="m0.10938-0.8125h0.21875l0.29688 0.5625v-0.5625h0.20312v0.8125h-0.23438l-0.29688-0.5625v0.5625h-0.1875z"/>
  </symbol>
  <symbol id="n" overflow="visible">
   <path d="m0.09375-0.23438v-0.375h0.1875v0.0625 0.125 0.09375 0.10938c0 0.023438 0.003906 0.039062 0.015625 0.046875 0.007813 0.011719 0.019531 0.023437 0.03125 0.03125 0.007813 0.011719 0.023437 0.015625 0.046875 0.015625 0.039062 0 0.070312-0.015625 0.09375-0.046875 0.019531-0.03125 0.03125-0.078125 0.03125-0.14062v-0.29688h0.20312v0.60938h-0.20312v-0.09375c-0.03125 0.042969-0.0625 0.074219-0.09375 0.09375-0.03125 0.0078125-0.070312 0.015625-0.10938 0.015625-0.0625 0-0.11719-0.019531-0.15625-0.0625-0.03125-0.039062-0.046875-0.10156-0.046875-0.1875z"/>
  </symbol>
  <symbol id="m" overflow="visible">
   <path d="m0.10938-0.8125h0.34375c0.10156 0 0.17969 0.027344 0.23438 0.078125 0.050781 0.042969 0.078125 0.10547 0.078125 0.1875 0 0.085937-0.027344 0.15234-0.078125 0.20312-0.054688 0.042969-0.13281 0.0625-0.23438 0.0625h-0.14062v0.28125h-0.20312zm0.20312 0.15625v0.21875h0.10938c0.039063 0 0.070313-0.003906 0.09375-0.015625 0.019531-0.019531 0.03125-0.050781 0.03125-0.09375 0-0.03125-0.011719-0.054687-0.03125-0.078125-0.023437-0.019531-0.054687-0.03125-0.09375-0.03125z"/>
  </symbol>
  <symbol id="l" overflow="visible">
   <path d="m0.09375-0.60938h0.1875v0.59375c0 0.082031-0.023438 0.14453-0.0625 0.1875-0.03125 0.039063-0.085938 0.0625-0.15625 0.0625h-0.09375v-0.125h0.03125c0.03125 0 0.050781-0.011719 0.0625-0.03125 0.019531-0.011719 0.03125-0.042969 0.03125-0.09375zm0-0.23438h0.1875v0.15625h-0.1875z"/>
  </symbol>
  <symbol id="k" overflow="visible">
   <path d="m0.57812-0.59375v0.17188c-0.023437-0.019531-0.046875-0.035156-0.078125-0.046875-0.023438-0.007812-0.046875-0.015625-0.078125-0.015625-0.054687 0-0.09375 0.015625-0.125 0.046875s-0.046875 0.078125-0.046875 0.14062c0 0.054687 0.015625 0.09375 0.046875 0.125s0.070313 0.046875 0.125 0.046875c0.03125 0 0.054687-0.003906 0.078125-0.015625 0.03125-0.007813 0.054688-0.019531 0.078125-0.03125v0.15625c-0.03125 0.011719-0.0625 0.015625-0.09375 0.015625-0.03125 0.0078125-0.0625 0.015625-0.09375 0.015625-0.10547 0-0.1875-0.023438-0.25-0.078125-0.0625-0.0625-0.09375-0.14062-0.09375-0.23438 0-0.10156 0.03125-0.17969 0.09375-0.23438 0.0625-0.0625 0.14453-0.09375 0.25-0.09375 0.03125 0 0.0625 0.007812 0.09375 0.015625 0.03125 0 0.0625 0.007813 0.09375 0.015625z"/>
  </symbol>
 </defs>
 <g>
  <path d="m398.29 204.16-21.164 23.812c-4.1875 9.2617 16.977 49.164 47.18 55.34 1.9844 0.44141 3.9688 0.66016 5.9531 0.66016l22.27-20.723c-25.797-10.805-45.637-32.41-54.234-59.086zm-39.906 45.195-149.7 168.44 37.48 36.598 164.25-152.12c-22.488-8.5977-43.652-30.426-52.031-52.914zm-173.51 161.61 208.79-236.12c-0.66016-83.559 102.52-128.54 163.59-67.684 63.055 63.277 12.566 172.85-79.148 162.71l-224.22 207.68c-10.805 10.582-21.828-5.5117-35.055-18.52-70.773 52.031-132.72-16.316-90.172-68.566 36.379-44.977 107.59-102.3 141.1-150.14 16.094-22.93 22.27-42.109 7.0547-52.914-8.8203-6.1719-26.234 0-46.078 11.023-35.938 20.062-75.621 56.66-91.055 72.758-10.141 10.582-26.234-4.8516-16.094-15.434 19.621-20.723 121.48-117.95 166.23-86.645 28.883 20.504 21.828 50.488-1.7656 84.219-35.496 50.488-105.61 106.27-142.2 151.24-25.574 31.527 9.2617 70.992 56.66 38.582-11.465-11.242-27.117-21.605-17.637-32.188zm273.16-244.95c-10.582-10.363 5.0703-26.234 15.652-16.094l72.094 72.094c39.684-47.621 5.9531-120.6-56.441-120.6-17.859 0-34.172 6.3945-46.961 17.195 6.6133 7.9375 17.637 17.418 7.7148 26.234-9.6992 8.3789-17.418-3.0859-22.707-9.2617-27.34 43.211-2.8672 101.2 47.621 111.12v0.21875c18.52 3.7461 38.141 0 53.797-10.141l-70.773-70.773z"/>
  <use x="70" y="563.308594" xlink:href="#u"/>
  <use x="70.808594" y="563.308594" xlink:href="#f"/>
  <use x="71.351562" y="563.308594" xlink:href="#b"/>
  <use x="72.101562" y="563.308594" xlink:href="#a"/>
  <use x="72.84375" y="563.308594" xlink:href="#e"/>
  <use x="73.371094" y="563.308594" xlink:href="#b"/>
  <use x="74.117188" y="563.308594" xlink:href="#j"/>
  <use x="75.292969" y="563.308594" xlink:href="#i"/>
  <use x="76.082031" y="563.308594" xlink:href="#d"/>
  <use x="77.183594" y="563.308594" xlink:href="#g"/>
  <use x="78.03125" y="563.308594" xlink:href="#c"/>
  <use x="78.789062" y="563.308594" xlink:href="#d"/>
  <use x="79.507812" y="563.308594" xlink:href="#d"/>
  <use x="80.226562" y="563.308594" xlink:href="#a"/>
  <use x="80.96875" y="563.308594" xlink:href="#h"/>
  <use x="82.140625" y="563.308594" xlink:href="#g"/>
  <use x="82.988281" y="563.308594" xlink:href="#a"/>
  <use x="83.730469" y="563.308594" xlink:href="#t"/>
  <use x="84.375" y="563.308594" xlink:href="#s"/>
  <use x="85.105469" y="563.308594" xlink:href="#a"/>
  <use x="70" y="564.410156" xlink:href="#r"/>
  <use x="70.480469" y="564.410156" xlink:href="#f"/>
  <use x="71.023438" y="564.410156" xlink:href="#c"/>
  <use x="71.78125" y="564.410156" xlink:href="#q"/>
  <use x="73.3125" y="564.410156" xlink:href="#e"/>
  <use x="73.839844" y="564.410156" xlink:href="#p"/>
  <use x="74.625" y="564.410156" xlink:href="#b"/>
  <use x="75.757812" y="564.410156" xlink:href="#o"/>
  <use x="76.679688" y="564.410156" xlink:href="#c"/>
  <use x="77.4375" y="564.410156" xlink:href="#n"/>
  <use x="78.222656" y="564.410156" xlink:href="#h"/>
  <use x="79.390625" y="564.410156" xlink:href="#m"/>
  <use x="80.199219" y="564.410156" xlink:href="#f"/>
  <use x="80.742188" y="564.410156" xlink:href="#c"/>
  <use x="81.5" y="564.410156" xlink:href="#l"/>
  <use x="81.875" y="564.410156" xlink:href="#b"/>
  <use x="82.625" y="564.410156" xlink:href="#k"/>
  <use x="83.277344" y="564.410156" xlink:href="#e"/>
 </g>
</svg>
