<?xml version="1.0" encoding="UTF-8"?>
<svg width="700pt" height="700pt" version="1.1" viewBox="0 0 700 700" xmlns="http://www.w3.org/2000/svg" xmlns:xlink="http://www.w3.org/1999/xlink">
 <defs>
  <symbol id="o" overflow="visible">
   <path d="m29.312-1.75c-1.5117 0.78125-3.0898 1.3711-4.7344 1.7656-1.6367 0.40625-3.3398 0.60938-5.1094 0.60938-5.3125 0-9.5273-1.4844-12.641-4.4531-3.1055-2.9688-4.6562-7-4.6562-12.094s1.5508-9.125 4.6562-12.094c3.1133-2.9688 7.3281-4.4531 12.641-4.4531 1.7695 0 3.4727 0.19922 5.1094 0.59375 1.6445 0.39844 3.2227 0.99219 4.7344 1.7812v6.5938c-1.5312-1.0391-3.0391-1.8008-4.5156-2.2812-1.4805-0.48828-3.0391-0.73438-4.6719-0.73438-2.9375 0-5.2461 0.94531-6.9219 2.8281-1.6797 1.875-2.5156 4.4648-2.5156 7.7656 0 3.293 0.83594 5.8828 2.5156 7.7656 1.6758 1.875 3.9844 2.8125 6.9219 2.8125 1.6328 0 3.1914-0.23828 4.6719-0.71875 1.4766-0.48828 2.9844-1.2539 4.5156-2.2969z"/>
  </symbol>
  <symbol id="i" overflow="visible">
   <path d="m21.453-17.406c-0.67969-0.3125-1.3516-0.53906-2.0156-0.6875-0.65625-0.15625-1.3203-0.23438-1.9844-0.23438-1.9688 0-3.4844 0.63281-4.5469 1.8906-1.0547 1.2617-1.5781 3.0703-1.5781 5.4219v11.016h-7.6562v-23.922h7.6562v3.9219c0.97656-1.5625 2.1016-2.7031 3.375-3.4219 1.2812-0.71875 2.8125-1.0781 4.5938-1.0781 0.25 0 0.52344 0.011719 0.82812 0.03125 0.30078 0.023438 0.73438 0.070312 1.2969 0.14062z"/>
  </symbol>
  <symbol id="d" overflow="visible">
   <path d="m27.562-12.031v2.1875h-17.891c0.1875 1.793 0.83203 3.1367 1.9375 4.0312 1.1133 0.89844 2.6719 1.3438 4.6719 1.3438 1.6016 0 3.25-0.23438 4.9375-0.70312 1.6875-0.47656 3.4219-1.2031 5.2031-2.1719v5.8906c-1.8047 0.6875-3.6094 1.2031-5.4219 1.5469-1.8125 0.35156-3.6211 0.53125-5.4219 0.53125-4.3359 0-7.7031-1.0977-10.109-3.2969-2.3984-2.207-3.5938-5.2969-3.5938-9.2656 0-3.9062 1.1758-6.9727 3.5312-9.2031 2.3633-2.2383 5.6094-3.3594 9.7344-3.3594 3.7578 0 6.7695 1.1367 9.0312 3.4062 2.2578 2.2617 3.3906 5.2812 3.3906 9.0625zm-7.8594-2.5312c0-1.457-0.42969-2.6289-1.2812-3.5156-0.84375-0.89453-1.9492-1.3438-3.3125-1.3438-1.4922 0-2.6992 0.41797-3.625 1.25-0.91797 0.83594-1.4922 2.0391-1.7188 3.6094z"/>
  </symbol>
  <symbol id="a" overflow="visible">
   <path d="m14.391-10.766c-1.5938 0-2.793 0.27344-3.5938 0.8125-0.80469 0.54297-1.2031 1.3398-1.2031 2.3906 0 0.96875 0.32031 1.7305 0.96875 2.2812 0.64453 0.54297 1.5469 0.8125 2.7031 0.8125 1.4375 0 2.6445-0.51562 3.625-1.5469 0.98828-1.0312 1.4844-2.3203 1.4844-3.875v-0.875zm11.688-2.8906v13.656h-7.7031v-3.5469c-1.0312 1.4492-2.1875 2.5078-3.4688 3.1719s-2.8398 1-4.6719 1c-2.4805 0-4.4961-0.72266-6.0469-2.1719-1.543-1.4453-2.3125-3.3203-2.3125-5.625 0-2.8125 0.96094-4.8672 2.8906-6.1719 1.9375-1.3125 4.9688-1.9688 9.0938-1.9688h4.5156v-0.60938c0-1.207-0.48047-2.0938-1.4375-2.6562-0.94922-0.5625-2.4375-0.84375-4.4688-0.84375-1.6367 0-3.1562 0.16797-4.5625 0.5-1.4062 0.32422-2.7188 0.8125-3.9375 1.4688v-5.8281c1.6445-0.40625 3.2891-0.70703 4.9375-0.90625 1.6562-0.20703 3.3047-0.3125 4.9531-0.3125 4.3203 0 7.4375 0.85547 9.3438 2.5625 1.9141 1.6992 2.875 4.4609 2.875 8.2812z"/>
  </symbol>
  <symbol id="c" overflow="visible">
   <path d="m12.031-30.719v6.7969h7.875v5.4688h-7.875v10.141c0 1.1172 0.21875 1.8711 0.65625 2.2656 0.4375 0.38672 1.3125 0.57812 2.625 0.57812h3.9375v5.4688h-6.5625c-3.0234 0-5.1641-0.62891-6.4219-1.8906-1.2617-1.2578-1.8906-3.3984-1.8906-6.4219v-10.141h-3.7969v-5.4688h3.7969v-6.7969z"/>
  </symbol>
  <symbol id="h" overflow="visible">
   <path d="m19.953-20.422v-12.812h7.6875v33.234h-7.6875v-3.4531c-1.0547 1.4062-2.2148 2.4375-3.4844 3.0938-1.2734 0.65625-2.7422 0.98438-4.4062 0.98438-2.9492 0-5.3711-1.1719-7.2656-3.5156-1.8867-2.3438-2.8281-5.3594-2.8281-9.0469s0.94141-6.7031 2.8281-9.0469c1.8945-2.3438 4.3164-3.5156 7.2656-3.5156 1.6562 0 3.1172 0.33594 4.3906 1 1.2812 0.65625 2.4453 1.6836 3.5 3.0781zm-5.0469 15.484c1.6445 0 2.8945-0.59766 3.75-1.7969 0.86328-1.1953 1.2969-2.9297 1.2969-5.2031 0-2.2812-0.43359-4.0195-1.2969-5.2188-0.85547-1.1953-2.1055-1.7969-3.75-1.7969-1.625 0-2.8711 0.60156-3.7344 1.7969-0.85547 1.1992-1.2812 2.9375-1.2812 5.2188 0 2.2734 0.42578 4.0078 1.2812 5.2031 0.86328 1.1992 2.1094 1.7969 3.7344 1.7969z"/>
  </symbol>
  <symbol id="g" overflow="visible">
   <path d="m16.406-4.9375c1.6328 0 2.8828-0.59766 3.75-1.7969 0.86328-1.1953 1.2969-2.9297 1.2969-5.2031 0-2.2812-0.43359-4.0195-1.2969-5.2188-0.86719-1.1953-2.1172-1.7969-3.75-1.7969-1.6367 0-2.8906 0.60547-3.7656 1.8125-0.875 1.1992-1.3125 2.9336-1.3125 5.2031 0 2.2617 0.4375 3.9961 1.3125 5.2031 0.875 1.1992 2.1289 1.7969 3.7656 1.7969zm-5.0781-15.484c1.0508-1.3945 2.2188-2.4219 3.5-3.0781 1.2812-0.66406 2.7539-1 4.4219-1 2.9453 0 5.3672 1.1719 7.2656 3.5156 1.8945 2.3438 2.8438 5.3594 2.8438 9.0469s-0.94922 6.7031-2.8438 9.0469c-1.8984 2.3438-4.3203 3.5156-7.2656 3.5156-1.668 0-3.1406-0.33594-4.4219-1s-2.4492-1.6914-3.5-3.0781v3.4531h-7.6562v-33.234h7.6562z"/>
  </symbol>
  <symbol id="f" overflow="visible">
   <path d="m0.53125-23.922h7.6562l6.4219 16.234 5.4688-16.234h7.6562l-10.062 26.188c-1.0117 2.6641-2.1953 4.5234-3.5469 5.5781-1.3438 1.0625-3.1211 1.5938-5.3281 1.5938h-4.4219v-5.0156h2.3906c1.3008 0 2.2422-0.21094 2.8281-0.625 0.59375-0.40625 1.0547-1.1484 1.3906-2.2188l0.20312-0.65625z"/>
  </symbol>
  <symbol id="e" overflow="visible">
   <path d="m4.0156-31.891h13.656c4.0508 0 7.1602 0.90234 9.3281 2.7031 2.1758 1.8047 3.2656 4.3711 3.2656 7.7031 0 3.3438-1.0898 5.918-3.2656 7.7188-2.168 1.8047-5.2773 2.7031-9.3281 2.7031h-5.4375v11.062h-8.2188zm8.2188 5.9531v8.9062h4.5625c1.5938 0 2.8203-0.38281 3.6875-1.1562 0.875-0.78125 1.3125-1.8789 1.3125-3.2969 0-1.4258-0.4375-2.5234-1.3125-3.2969-0.86719-0.76953-2.0938-1.1562-3.6875-1.1562z"/>
  </symbol>
  <symbol id="b" overflow="visible">
   <path d="m27.734-14.562v14.562h-7.7031v-11.109c0-2.0938-0.046875-3.5312-0.14062-4.3125-0.085937-0.78125-0.24219-1.3594-0.46875-1.7344-0.30469-0.5-0.71094-0.88281-1.2188-1.1562-0.51172-0.28125-1.0938-0.42188-1.75-0.42188-1.5938 0-2.8516 0.61719-3.7656 1.8438-0.90625 1.2305-1.3594 2.9375-1.3594 5.125v11.766h-7.6562v-33.234h7.6562v12.812c1.1445-1.3945 2.3633-2.4219 3.6562-3.0781 1.3008-0.66406 2.7383-1 4.3125-1 2.7578 0 4.8516 0.85156 6.2812 2.5469 1.4375 1.6875 2.1562 4.1523 2.1562 7.3906z"/>
  </symbol>
  <symbol id="n" overflow="visible">
   <path d="m15.062-19.031c-1.6992 0-2.9961 0.60938-3.8906 1.8281-0.88672 1.2188-1.3281 2.9766-1.3281 5.2656 0 2.293 0.44141 4.0469 1.3281 5.2656 0.89453 1.2188 2.1914 1.8281 3.8906 1.8281 1.6641 0 2.9375-0.60938 3.8125-1.8281 0.88281-1.2188 1.3281-2.9727 1.3281-5.2656 0-2.2891-0.44531-4.0469-1.3281-5.2656-0.875-1.2188-2.1484-1.8281-3.8125-1.8281zm0-5.4688c4.1133 0 7.3281 1.1094 9.6406 3.3281s3.4688 5.2969 3.4688 9.2344c0 3.9297-1.1562 7.0078-3.4688 9.2344-2.3125 2.2188-5.5273 3.3281-9.6406 3.3281-4.1367 0-7.3711-1.1094-9.7031-3.3281-2.3242-2.2266-3.4844-5.3047-3.4844-9.2344 0-3.9375 1.1602-7.0156 3.4844-9.2344 2.332-2.2188 5.5664-3.3281 9.7031-3.3281z"/>
  </symbol>
  <symbol id="m" overflow="visible">
   <path d="m27.734-14.562v14.562h-7.7031v-11.156c0-2.0625-0.046875-3.4844-0.14062-4.2656-0.085937-0.78125-0.24219-1.3594-0.46875-1.7344-0.30469-0.5-0.71094-0.88281-1.2188-1.1562-0.51172-0.28125-1.0938-0.42188-1.75-0.42188-1.5938 0-2.8516 0.61719-3.7656 1.8438-0.90625 1.2305-1.3594 2.9375-1.3594 5.125v11.766h-7.6562v-23.922h7.6562v3.5c1.1445-1.3945 2.3633-2.4219 3.6562-3.0781 1.3008-0.66406 2.7383-1 4.3125-1 2.7578 0 4.8516 0.85156 6.2812 2.5469 1.4375 1.6875 2.1562 4.1523 2.1562 7.3906z"/>
  </symbol>
  <symbol id="l" overflow="visible">
   <path d="m3.6719-33.234h7.6562v33.234h-7.6562z"/>
  </symbol>
  <symbol id="k" overflow="visible">
   <path d="m11.328-3.4531v12.547h-7.6562v-33.016h7.6562v3.5c1.0508-1.3945 2.2188-2.4219 3.5-3.0781 1.2812-0.66406 2.7539-1 4.4219-1 2.9453 0 5.3672 1.1719 7.2656 3.5156 1.8945 2.3438 2.8438 5.3594 2.8438 9.0469s-0.94922 6.7031-2.8438 9.0469c-1.8984 2.3438-4.3203 3.5156-7.2656 3.5156-1.668 0-3.1406-0.33594-4.4219-1s-2.4492-1.6914-3.5-3.0781zm5.0781-15.5c-1.6367 0-2.8906 0.60547-3.7656 1.8125-0.875 1.1992-1.3125 2.9336-1.3125 5.2031 0 2.2617 0.4375 3.9961 1.3125 5.2031 0.875 1.1992 2.1289 1.7969 3.7656 1.7969 1.6328 0 2.8828-0.59766 3.75-1.7969 0.86328-1.1953 1.2969-2.9297 1.2969-5.2031 0-2.2812-0.43359-4.0195-1.2969-5.2188-0.86719-1.1953-2.1172-1.7969-3.75-1.7969z"/>
  </symbol>
  <symbol id="j" overflow="visible">
   <path d="m0.21875-31.891h29.391v6.2188h-10.578v25.672h-8.2188v-25.672h-10.594z"/>
  </symbol>
 </defs>
 <g>
  <path d="m577.5 87.5h-220.75l8.1094-8.1211c0.097656-0.085937 0.12109-0.21875 0.21094-0.31641v0.003906c0.57031-0.62891 1.043-1.3398 1.4023-2.1094 0.13281-0.26172 0.26953-0.5 0.375-0.76953 0.027344-0.0625 0.054688-0.125 0.085938-0.18359l18.551-55.746c1.0391-3.1445 0.21875-6.6055-2.125-8.9414-2.3398-2.3398-5.8008-3.1562-8.9414-2.1133l-55.648 18.551c-0.12109 0-0.20312 0.14062-0.31641 0.18359-0.41797 0.19531-0.82031 0.42188-1.1992 0.68359-0.62891 0.30859-1.2188 0.69922-1.75 1.1562-0.050781 0-0.11328 0.0625-0.15625 0.10547l-53.824 53.836c-1.0898-2.3281-3.1562-4.0547-5.6445-4.707l-11.297-2.8281 5.9922-10h0.003907c2.0625-3.4414 1.5234-7.8438-1.3125-10.684l-24.762-24.762c-2.8398-2.8359-7.2422-3.3828-10.684-1.3203l-10 6.0039-2.8281-11.289c-0.97266-3.8984-4.4727-6.6328-8.4883-6.6328h-35c-4.0156 0-7.5156 2.7344-8.4883 6.6328l-2.8281 11.289-10-6.0039c-3.4414-2.0625-7.8438-1.5156-10.684 1.3203l-24.762 24.762c-2.8359 2.8398-3.375 7.2422-1.3125 10.684l5.9922 10-11.293 2.8281c-3.8945 0.97656-6.625 4.4766-6.625 8.4883v35c0 4.0117 2.7305 7.5117 6.625 8.4883l11.297 2.8281-5.9922 10h-0.003907c-2.0625 3.4414-1.5234 7.8438 1.3125 10.684l24.762 24.762c2.8398 2.8359 7.2422 3.3828 10.684 1.3203l10-6.0039 2.8281 11.289c0.64844 2.4922 2.375 4.5625 4.707 5.6523l-67.277 67.289c-4.9219 4.9219-7.6875 11.598-7.6875 18.559 0 6.9609 2.7656 13.637 7.6875 18.559l12.383 12.391c4.9219 4.9219 11.605 7.6797 18.566 7.6641 1.7148-0.003907 3.4258-0.17578 5.1094-0.50781v139.53c0 2.3203 0.92188 4.5469 2.5625 6.1875s3.8672 2.5625 6.1875 2.5625h192.5v26.25h-43.75c-3.3164 0-6.3477 1.8711-7.832 4.8398l-17.5 35c-1.3555 2.7109-1.2109 5.9336 0.38672 8.5117 1.5938 2.582 4.4141 4.1484 7.4453 4.1484h175c3.0391 0.015625 5.8711-1.5469 7.4766-4.1289 1.6055-2.582 1.7578-5.8125 0.39844-8.5312l-17.5-35c-1.4883-2.9805-4.543-4.8594-7.875-4.8398h-43.75v-26.25h201.25c2.3203 0 4.5469-0.92188 6.1875-2.5625s2.5625-3.8672 2.5625-6.1875v-358.75c0-2.3203-0.92188-4.5469-2.5625-6.1875s-3.8672-2.5625-6.1875-2.5625zm-154.16 437.5h-146.69l8.75-17.5h129.19zm-82.094-35v-17.5h17.5v17.5zm-28.262-358.75h28.262v35h-63.262zm-164.68 139.93-6.1875-6.1875 197.96-197.96 6.1758 6.1953zm173.25-222.73 6.1875 6.2031-198 197.97-6.1875-6.1875zm33.25 8.5234-17.062-17.09 25.621-8.5469zm-190.48 118.03-4.0352-16.117h0.003906c-0.67188-2.6914-2.582-4.9023-5.1406-5.9648-2.5625-1.0586-5.4766-0.84375-7.8555 0.58203l-14.262 8.5586-15.102-15.059 8.5664-14.262c1.4219-2.3789 1.6367-5.2891 0.57813-7.8477-1.0625-2.5586-3.2734-4.4648-5.9609-5.1367l-16.125-4.0781v-21.352l16.125-4.0352v0.003907c2.6875-0.67578 4.8984-2.582 5.9609-5.1406 1.0586-2.5586 0.84375-5.4688-0.57813-7.8477l-8.5664-14.262 15.102-15.102 14.262 8.5586c2.3789 1.4258 5.293 1.6406 7.8555 0.58203 2.5586-1.0625 4.4688-3.2734 5.1406-5.9648l4.0312-16.117h21.332l4.0352 16.117c0.67188 2.6914 2.582 4.9023 5.1406 5.9648 2.5625 1.0586 5.4766 0.84375 7.8555-0.58203l14.262-8.5586 15.102 15.102-8.5664 14.262c-1.4219 2.3789-1.6367 5.2891-0.57813 7.8477 1.0625 2.5586 3.2734 4.4648 5.9609 5.1406l16.125 4.0312v5.9219l-74.75 74.754zm-53.137 120.93-12.391-12.391c-3.4102-3.4141-3.4102-8.9453 0-12.363l12.371-12.371 24.754 24.746-12.363 12.379c-3.4141 3.4141-8.9531 3.4141-12.371 0zm457.55 150.32h-428.75v-142l8.75-8.75v10.754h78.75v-17.5h-72.012l8.75-8.75h63.262v-17.5h-45.762l8.75-8.75h37.012v-17.5h-19.512l52.5-52.5h89.512c2.3203 0 4.5469-0.92188 6.1875-2.5625s2.5625-3.8672 2.5625-6.1875v-52.5c0-2.3203-0.92188-4.5469-2.5625-6.1875s-3.8672-2.5625-6.1875-2.5625h-19.512l8.75-8.75h229.51z"/>
  <path d="m423.92 385.3c13.629-16.289 21.461-36.641 22.262-57.867 0.80469-21.223-5.4688-42.109-17.828-59.383l29.645-23.047h40.75v-17.5h-43.75c-1.9453 0-3.8359 0.65234-5.3711 1.8477l-32.664 25.375c-17.445-16.992-40.691-26.727-65.039-27.234-24.344-0.51172-47.977 8.2422-66.117 24.484-18.145 16.246-29.441 38.773-31.613 63.027h-105.45v17.5h105.45c2.1133 23.41 12.727 45.238 29.84 61.352 17.113 16.117 39.535 25.402 63.031 26.105s46.434-7.2227 64.48-22.285l19.766 19.766c1.6406 1.6406 3.8672 2.5625 6.1875 2.5625h122.5v-17.5h-118.88zm-73.922-140.3c19.617 0.007812 38.516 7.3711 52.965 20.641l-32.086 24.953 10.746 13.809 32.934-25.621v0.003906c9.7422 13.898 14.707 30.582 14.148 47.547-0.55469 16.961-6.6055 33.285-17.238 46.516l-55.281-55.281v-0.003906c-1.6406-1.6406-3.8672-2.5625-6.1875-2.5625h-78.234c2.1719-19.238 11.344-37.004 25.773-49.914 14.426-12.91 33.102-20.059 52.461-20.086zm0 157.5c-19.359-0.027344-38.035-7.1758-52.461-20.086-14.43-12.91-23.602-30.676-25.773-49.914h74.609l52.719 52.719h0.003906c-13.918 11.191-31.242 17.289-49.098 17.281z"/>
  <path d="m481.25 376.25h78.75v17.5h-78.75z"/>
  <path d="m481.25 350h78.75v17.5h-78.75z"/>
  <path d="m481.25 323.75h78.75v17.5h-78.75z"/>
  <path d="m428.75 201.25h70v17.5h-70z"/>
  <path d="m428.75 175h70v17.5h-70z"/>
  <path d="m428.75 148.75h70v17.5h-70z"/>
  <path d="m148.75 420h17.5v17.5h-17.5z"/>
  <path d="m175 420h17.5v17.5h-17.5z"/>
  <path d="m148.75 393.75h17.5v17.5h-17.5z"/>
  <path d="m175 70c-9.2812 0-18.184 3.6875-24.75 10.25-6.5625 6.5664-10.25 15.469-10.25 24.75s3.6875 18.184 10.25 24.75c6.5664 6.5625 15.469 10.25 24.75 10.25s18.184-3.6875 24.75-10.25c6.5625-6.5664 10.25-15.469 10.25-24.75s-3.6875-18.184-10.25-24.75c-6.5664-6.5625-15.469-10.25-24.75-10.25zm0 52.5c-4.6406 0-9.0938-1.8438-12.375-5.125s-5.125-7.7344-5.125-12.375 1.8438-9.0938 5.125-12.375 7.7344-5.125 12.375-5.125 9.0938 1.8438 12.375 5.125 5.125 7.7344 5.125 12.375-1.8438 9.0938-5.125 12.375-7.7344 5.125-12.375 5.125z"/>
  <use x="70" y="691.25" xlink:href="#o"/>
  <use x="102.109375" y="691.25" xlink:href="#i"/>
  <use x="123.683594" y="691.25" xlink:href="#d"/>
  <use x="153.355469" y="691.25" xlink:href="#a"/>
  <use x="182.878906" y="691.25" xlink:href="#c"/>
  <use x="203.792969" y="691.25" xlink:href="#d"/>
  <use x="233.464844" y="691.25" xlink:href="#h"/>
  <use x="280.011719" y="691.25" xlink:href="#g"/>
  <use x="311.328125" y="691.25" xlink:href="#f"/>
  <use x="355.078125" y="691.25" xlink:href="#e"/>
  <use x="387.144531" y="691.25" xlink:href="#b"/>
  <use x="418.289062" y="691.25" xlink:href="#n"/>
  <use x="448.347656" y="691.25" xlink:href="#m"/>
  <use x="479.492187" y="691.25" xlink:href="#l"/>
  <use x="494.492188" y="691.25" xlink:href="#a"/>
  <use x="524.011719" y="691.25" xlink:href="#k"/>
  <use x="555.332031" y="691.25" xlink:href="#b"/>
  <use x="586.476562" y="691.25" xlink:href="#a"/>
  <use x="616" y="691.25" xlink:href="#c"/>
  <use x="652.144531" y="691.25" xlink:href="#j"/>
  <use x="681.988281" y="691.25" xlink:href="#b"/>
 </g>
</svg>
